<!-- Generated by IcoMoon.io -->
<svg version="1.1" xmlns="http://www.w3.org/2000/svg" width="1024" height="1024" viewBox="0 0 1024 1024">
<title></title>
<g id="icomoon-ignore">
</g>
<path fill="#000" d="M557.256 996.397l-435.868-241.619v-163.974c26.001 6.367 59.281 12.043 103.313 18.321l0.868 0.134 0.935 0.134c121.834 17.608 176.573 45.568 180.447 47.549 91.403 55.096 166.867 130.649 219.603 219.982 12.021 20.346 22.773 41.316 31.944 62.33l0.356 0.801-101.599 56.342zM334.024 447.8c-0.401 0-0.735 0.067-1.113 0.111 0.801-0.534 1.625-1.024 2.493-1.469 2.048-1.069 4.341-1.67 6.701-1.692 3.896 0 7.057 1.647 9.505 2.582 4.653 1.981 9.216 4.185 13.668 6.567-6.834 0.935-11.709 7.48-20.525 10.307-1.269 0.378-2.56 0.601-3.896 0.712 4.274-3.695 4.541-9.951 0.579-13.958-1.937-1.937-4.608-3.094-7.413-3.161v0zM673.146 430.726c-7.68 0-18.432-6.901-18.432-6.901 8.949-5.454 10.596-17.163 10.596-17.163-2.449 3.206-6.433 5.098-10.641 5.075-1.914 0-3.183-0.401-3.183-0.401 2.404-5.454-0.824-10.93-0.824-10.93-2.694 4.474-7.836 7.168-13.29 6.99-3.117 0-5.432-0.735-5.432-0.735 2.605-8.147 0.512-17.764-0.445-21.259l-0.356-1.38c-0.178 0.334-0.378 0.646-0.579 0.935-4.697 7.057-33.703 25.021-53.070 29.496-3.829 0.868-6.567 1.224-8.57 1.224-8.459 0-2.026-6.678-2.026-6.678s0.668-1.158 2.026-2.983l0.045-0.067c9.416-12.444 23.018-21.549 38.578-25.845 2.115-0.601 4.274-1.113 6.5-1.625 9.55-2.226 19.768-3.695 29.407-3.695 18.031 0 34.104 5.098 40.493 20.146 4.007 9.572 8.704 22.483 11.798 34.527 2.515 9.906 3.962 19.189 3.050 25.511-0.022 1.536-0.356 3.072-1.024 4.497h-0.289c-1.202 2.315-3.094 3.695-5.966 3.695-0.913 0-1.848-0.134-2.716-0.356-13.023-3.117-27.648-19.501-27.648-19.501 8.949-3.139 15.449-13.267 15.449-13.267-1.113 0.467-2.315 0.69-3.517 0.668v0.022zM96.991 476.561c-1.892-10.262-21.704-29.229-29.34-36.218 17.185-4.341 50.087-12.689 89.555-22.595 37.376-9.394 173.412-110.993 275.1-124.282 13.245-1.736 27.759-3.228 43.297-4.207 0.801 0.067 1.647 0.111 2.694 0.111 1.87 0 3.851-0.178 5.921-0.401 8.904 0.134 22.951 0.534 40.493 1.848 27.715 2.493 55.808 6.5 69.699 8.637 11.91 1.825 31.633 5.944 53.337 10.841 47.126 11.91 96.634 30.408 138.685 59.125 109.123 74.596 171.698 129.447 175.304 137.238 3.45 7.48-180.046-9.082-245.671-64.356-2.582-19.679-11.576-43.008-16.718-55.185-5.521-13.112-19.545-28.783-54.762-28.783-16.25 0-32.189 3.428-42.696 6.3-2.738 0.779-5.432 1.692-8.058 2.694-11.175-2.805-22.483-4.986-33.903-6.5-30.586-4.319-79.093-11.219-182.495 18.989-103.402 30.186-217.533 86.305-235.542 104.426-17.965 18.098 1.803 44.010 18.009 55.229s33.258 30.186 39.558 14.67c6.3-15.538 3.606-19.011 26.98-17.252 23.374 1.736 153.711 15.516 214.817 1.736 61.151-13.802 122.257-30.208 133.966-42.318 0 0-0.913 14.692-5.409 22.439 0 0 26.067-3.428 35.061-9.483 0 0-0.89 10.351-7.19 14.67 0 0 15.293 5.165 26.98-1.714 0 0-9.884 8.637-7.19 16.384 2.716 7.769 27.871 10.351 80.896 16.384 48.106 5.498 162.66 81.163 252.616 223.187l-26.98 14.959c-39.647-22.906-94.675-54.65-142.024-81.942-85.393-49.197-224.723-101.843-346.958-106.14-87.886-3.139-188.438-3.896-280.287-24.665 25.934 2.159 56.097 3.896 79.093 3.094 9.305-0.334 18.276-0.779 26.891-1.158 36.886-1.692 66.026-3.072 86.127 4.252 0.646 0.223 1.291 0.356 1.914 0.356 2.271 0.022 4.274-1.358 5.075-3.339 1.069-2.649-0.334-5.632-3.139-6.701-22.216-8.081-52.358-6.678-90.513-4.897-8.526 0.378-17.453 0.779-26.713 1.113-48.417 1.736-130.76-3.295-158.52-17.453 4.831-13.557 24.198-67.517 22.038-79.093zM536.175 275.679l-1.135 0.067c-1.425 0.134-2.916 0.245-4.363 0.334l-1.87 0.111c-2.805 0.134-5.632 0.178-8.437 0.111 2.493-1.67 5.009-3.361 7.48-5.075 5.365-3.562 10.552-7.123 15.538-10.529 20.168-13.802 37.799-25.867 50.042-27.759 1.091-0.178 2.182-0.289 3.25-0.312 1.046 0 2.048 0.111 2.983 0.312 9.261 1.959 26.001 12.088 41.005 23.352-0.423 1.514-0.69 3.206-0.824 4.742-0.178 1.558-0.245 3.027-0.312 4.185-0.045 1.135-0.2 2.271-0.423 3.384-0.467 2.204-1.224 3.584-2.026 4.163l-0.111 0.089c-0.223 0.134-0.445 0.2-0.69 0.2-0.445-0.022-0.913-0.156-1.336-0.401-2.872-1.491-4.185-6.567-4.43-8.237l-0.69-4.764-4.497 2.159c-1.981 0.979-3.94 2.048-5.855 3.161-2.115 1.202-5.098 2.894-6.923 3.539 0.512-8.838-8.838-16.295-9.884-17.096l-3.74-2.849-1.848 4.23c-5.231 12.065-36.953 20.68-62.019 22.906l1.113-0.022zM121.389 271.56l435.868-241.619 435.868 241.619v204.755c-77.713-72.771-160.634-126.976-246.561-161.057-0.579-0.423-1.224-0.779-1.848-1.091-29.429-15.649-56.899-38.022-67.072-48.907-17.564-18.855-54.561-44.967-74.129-49.152-2.271-0.467-4.563-0.712-6.879-0.712-18.031 0-38.177 13.779-63.688 31.277-4.942 3.384-10.084 6.879-15.36 10.418-13.267 8.815-20.124 12.511-23.619 14.069-21.437 0.69-42.852 2.404-64.111 5.187-70.634 9.238-153.778 57.055-214.483 91.96-26.98 15.494-52.469 30.141-62.731 32.701l-31.299 7.88 0.045-137.327zM1007.549 247.63l-435.868-241.619c-8.904-4.942-19.923-4.942-28.806 0l-435.868 241.619c-8.971 5.009-14.425 14.113-14.381 23.93v144.607l-42.385 10.752c-24.531 6.122-39.469 16.429-45.724 31.455-9.238 22.305 4.319 48.106 18.855 70.389 16.785 25.823 34.549 41.583 69.276 53.738v172.321c0 9.862 5.454 18.989 14.381 23.886l435.846 241.619c8.882 4.964 19.923 4.964 28.806 0l435.868-241.597c8.904-4.942 14.381-14.047 14.381-23.908v-483.283c-0.045-9.862-5.521-18.966-14.381-23.908v0z"></path>
</svg>
