<!-- Generated by IcoMoon.io -->
<svg version="1.1" xmlns="http://www.w3.org/2000/svg" width="32" height="32" viewBox="0 0 32 32">
<title>badgr</title>
<path fill="#c30a28" d="M17.414 31.137l-13.621-7.551v-5.124c0.813 0.199 1.853 0.376 3.229 0.573l0.027 0.004 0.029 0.004c3.807 0.55 5.518 1.424 5.639 1.486 2.856 1.722 5.215 4.083 6.863 6.874 0.376 0.636 0.712 1.291 0.998 1.948l0.011 0.025-3.175 1.761zM10.438 13.994c-0.013 0-0.023 0.002-0.035 0.003 0.025-0.017 0.051-0.032 0.078-0.046 0.064-0.033 0.136-0.052 0.209-0.053 0.122 0 0.221 0.051 0.297 0.081 0.145 0.062 0.288 0.131 0.427 0.205-0.214 0.029-0.366 0.234-0.641 0.322-0.040 0.012-0.080 0.019-0.122 0.022 0.134-0.115 0.142-0.311 0.018-0.436-0.061-0.061-0.144-0.097-0.232-0.099v0zM21.036 13.46c-0.24 0-0.576-0.216-0.576-0.216 0.28-0.17 0.331-0.536 0.331-0.536-0.077 0.1-0.201 0.159-0.333 0.159-0.060 0-0.099-0.013-0.099-0.013 0.075-0.17-0.026-0.342-0.026-0.342-0.084 0.14-0.245 0.224-0.415 0.218-0.097 0-0.17-0.023-0.17-0.023 0.081-0.255 0.016-0.555-0.014-0.664l-0.011-0.043c-0.006 0.010-0.012 0.020-0.018 0.029-0.147 0.221-1.053 0.782-1.658 0.922-0.12 0.027-0.205 0.038-0.268 0.038-0.264 0-0.063-0.209-0.063-0.209s0.021-0.036 0.063-0.093l0.001-0.002c0.294-0.389 0.719-0.673 1.206-0.808 0.066-0.019 0.134-0.035 0.203-0.051 0.298-0.070 0.618-0.115 0.919-0.115 0.563 0 1.066 0.159 1.265 0.63 0.125 0.299 0.272 0.703 0.369 1.079 0.079 0.31 0.124 0.6 0.095 0.797-0.001 0.048-0.011 0.096-0.032 0.141h-0.009c-0.038 0.072-0.097 0.115-0.186 0.115-0.029 0-0.058-0.004-0.085-0.011-0.407-0.097-0.864-0.609-0.864-0.609 0.28-0.098 0.483-0.415 0.483-0.415-0.035 0.015-0.072 0.022-0.11 0.021v0.001zM3.031 14.893c-0.059-0.321-0.678-0.913-0.917-1.132 0.537-0.136 1.565-0.397 2.799-0.706 1.168-0.294 5.419-3.469 8.597-3.884 0.414-0.054 0.867-0.101 1.353-0.131 0.025 0.002 0.051 0.003 0.084 0.003 0.058 0 0.12-0.006 0.185-0.013 0.278 0.004 0.717 0.017 1.265 0.058 0.866 0.078 1.744 0.203 2.178 0.27 0.372 0.057 0.989 0.186 1.667 0.339 1.473 0.372 3.020 0.95 4.334 1.848 3.41 2.331 5.366 4.045 5.478 4.289 0.108 0.234-5.626-0.284-7.677-2.011-0.081-0.615-0.362-1.344-0.522-1.725-0.173-0.41-0.611-0.899-1.711-0.899-0.508 0-1.006 0.107-1.334 0.197-0.086 0.024-0.17 0.053-0.252 0.084-0.349-0.088-0.703-0.156-1.059-0.203-0.956-0.135-2.472-0.351-5.703 0.593s-6.798 2.697-7.361 3.263c-0.561 0.566 0.056 1.375 0.563 1.726s1.039 0.943 1.236 0.458c0.197-0.486 0.113-0.594 0.843-0.539s4.803 0.485 6.713 0.054c1.911-0.431 3.821-0.944 4.186-1.322 0 0-0.029 0.459-0.169 0.701 0 0 0.815-0.107 1.096-0.296 0 0-0.028 0.323-0.225 0.458 0 0 0.478 0.161 0.843-0.054 0 0-0.309 0.27-0.225 0.512s0.871 0.323 2.528 0.512c1.503 0.172 5.083 2.536 7.894 6.975l-0.843 0.467c-1.239-0.716-2.959-1.708-4.438-2.561-2.669-1.537-7.023-3.183-10.842-3.317-2.746-0.098-5.889-0.122-8.759-0.771 0.81 0.067 1.753 0.122 2.472 0.097 0.291-0.010 0.571-0.024 0.84-0.036 1.153-0.053 2.063-0.096 2.691 0.133 0.020 0.007 0.040 0.011 0.060 0.011 0.071 0.001 0.134-0.042 0.159-0.104 0.033-0.083-0.010-0.176-0.098-0.209-0.694-0.253-1.636-0.209-2.829-0.153-0.266 0.012-0.545 0.024-0.835 0.035-1.513 0.054-4.086-0.103-4.954-0.545 0.151-0.424 0.756-2.11 0.689-2.472zM16.755 8.615l-0.035 0.002c-0.045 0.004-0.091 0.008-0.136 0.010l-0.058 0.003c-0.088 0.004-0.176 0.006-0.264 0.003 0.078-0.052 0.157-0.105 0.234-0.159 0.168-0.111 0.33-0.223 0.486-0.329 0.63-0.431 1.181-0.808 1.564-0.867 0.034-0.006 0.068-0.009 0.102-0.010s0.064 0.003 0.093 0.010c0.289 0.061 0.813 0.378 1.281 0.73-0.013 0.047-0.022 0.1-0.026 0.148-0.006 0.049-0.008 0.095-0.010 0.131s-0.006 0.071-0.013 0.106c-0.015 0.069-0.038 0.112-0.063 0.13l-0.003 0.003c-0.007 0.004-0.014 0.006-0.022 0.006-0.014-0.001-0.029-0.005-0.042-0.013-0.090-0.047-0.131-0.205-0.138-0.257l-0.022-0.149-0.141 0.067c-0.062 0.031-0.123 0.064-0.183 0.099-0.066 0.038-0.159 0.090-0.216 0.111 0.016-0.276-0.276-0.509-0.309-0.534l-0.117-0.089-0.058 0.132c-0.163 0.377-1.155 0.646-1.938 0.716l0.035-0.001zM3.793 8.486l13.621-7.551 13.621 7.551v6.399c-2.429-2.274-5.020-3.968-7.705-5.033-0.018-0.013-0.038-0.024-0.058-0.034-0.92-0.489-1.778-1.188-2.096-1.528-0.549-0.589-1.705-1.405-2.317-1.536-0.071-0.015-0.143-0.022-0.215-0.022-0.563 0-1.193 0.431-1.99 0.977-0.154 0.106-0.315 0.215-0.48 0.326-0.415 0.275-0.629 0.391-0.738 0.44-0.67 0.022-1.339 0.075-2.003 0.162-2.207 0.289-4.806 1.783-6.703 2.874-0.843 0.484-1.64 0.942-1.96 1.022l-0.978 0.246 0.001-4.291zM31.486 7.738l-13.621-7.551c-0.278-0.154-0.623-0.154-0.9 0l-13.621 7.551c-0.28 0.157-0.451 0.441-0.449 0.748v4.519l-1.325 0.336c-0.767 0.191-1.233 0.513-1.429 0.983-0.289 0.697 0.135 1.503 0.589 2.2 0.525 0.807 1.080 1.299 2.165 1.679v5.385c0 0.308 0.17 0.593 0.449 0.746l13.62 7.551c0.278 0.155 0.623 0.155 0.9 0l13.621-7.55c0.278-0.154 0.449-0.439 0.449-0.747v-15.103c-0.001-0.308-0.173-0.593-0.449-0.747v0z"></path>
</svg>
